inDegrees=yes
name=ik_MT_012005D6_009-001_orientations
DataType=double
version=3
OpenSimVersion=4.5-2024-01-10-34fd6af
endheader
time	pelvis_tilt	pelvis_list	pelvis_rotation	pelvis_tx	pelvis_ty	pelvis_tz	hip_flexion_r	hip_adduction_r	hip_rotation_r	knee_angle_r	knee_angle_r_beta	ankle_angle_r	subtalar_angle_r	mtp_angle_r	hip_flexion_l	hip_adduction_l	hip_rotation_l	knee_angle_l	knee_angle_l_beta	ankle_angle_l	subtalar_angle_l	mtp_angle_l	lumbar_extension	lumbar_bending	lumbar_rotation	arm_flex_r	arm_add_r	arm_rot_r	elbow_flex_r	pro_sup_r	wrist_flex_r	wrist_dev_r	arm_flex_l	arm_add_l	arm_rot_l	elbow_flex_l	pro_sup_l	wrist_flex_l	wrist_dev_l
13.06999999999977	25.4884263557573	-147.1034864913786	-217.512760019788	0	0.9399999999999999	0	14.21414145269675	29.99675710695936	39.99860595512323	16.94785241952956	0.2957958258628782	-4.999405065382601	0	0	-29.99836752004111	29.99343883495385	39.99633461763437	119.9965697858964	2.09433523386304	-4.999405065382601	0	0	0	0	0	0	-9.210264573663402	0	65.62547218094997	44.68693668542856	0	0	0	-9.210264573663402	0	65.62547218094997	44.68693668542856	0	0
13.07999999999977	25.28626713927286	-146.9574852406056	-217.7232309796433	0	0.9399999999999999	0	14.09692254663053	29.99680942471591	39.99861155135219	17.8255803366024	0.3111150679524709	-4.999407647636165	0	0	-29.99835472309358	29.99367801228666	39.99642512724554	119.9965053313735	2.094334108919397	-4.999407647636165	0	0	0	0	0	0	-9.213391051862827	0	65.63527286316172	44.68778752385295	0	0	0	-9.213391051862827	0	65.63527286316172	44.68778752385295	0	0
13.08999999999977	25.05840387571904	-146.7979060620607	-218.1042037371935	0	0.9399999999999999	0	14.03404279400825	29.99687076700189	39.99861598076321	18.6991570961048	0.3263618586746905	-4.999410269215994	0	0	-29.99833967094563	29.99390456911948	39.99650816341708	119.9964305380389	2.09433280352945	-4.999410269215994	0	0	0	0	0	0	-9.216762301841571	0	65.6456877599534	44.68866680279577	0	0	0	-9.216762301841571	0	65.6456877599534	44.68866680279577	0	0
13.09999999999977	24.86898999858767	-146.6010900743005	-218.6108812150248	0	0.9399999999999999	0	13.79710594106005	29.99691205278601	39.99862078378651	19.47958697513628	0.3399829296447308	-4.999415174783026	0	0	-29.99832426252886	29.99414516638168	39.99658293237977	119.9963433802858	2.094331282339689	-4.999415174783026	0	0	0	0	0	0	-9.223220938243081	0	65.66554725297894	44.69032562209708	0	0	0	-9.223220938243081	0	65.66554725297894	44.69032562209708	0	0
13.10999999999976	24.80052873021002	-146.4202419260767	-219.1440088742443	0	0.9399999999999999	0	13.14807908299029	29.99691463247705	39.9986276745509	20.28792845583761	0.3540911499634153	-4.999419587413238	0	0	-29.99830747085339	29.99440809566563	39.99666791162277	119.9962468491279	2.094329597553153	-4.999419587413238	0	0	0	0	0	0	-9.228986836342649	0	65.68332720630639	44.69181633143179	0	0	0	-9.228986836342649	0	65.68332720630639	44.69181633143179	0	0
13.11999999999976	25.06238804981863	-146.2896826156835	-219.5906901212224	0	0.9399999999999999	0	11.81025240623879	29.99687147259054	39.99863866684246	21.47023252634151	0.3747262487534395	-4.999424358903037	0	0	-29.99829075637357	29.99469862371629	39.99677885456865	119.996149849405	2.094327904588615	-4.999424358903037	0	0	0	0	0	0	-9.235151098354343	0	65.70240314379622	44.69342451512854	0	0	0	-9.235151098354343	0	65.70240314379622	44.69342451512854	0	0
13.12999999999976	25.42744168431094	-146.0868851212853	-220.0311162269435	0	0.9399999999999999	0	10.26492599879438	29.99680722925486	39.99865172934494	22.84887347062087	0.3987880724339181	-4.999428733484756	0	0	-29.99827406359562	29.9949558966166	39.9968919870361	119.9960519948121	2.09432619670378	-4.999428733484756	0	0	0	0	0	0	-9.240774144747057	0	65.7198369483322	44.6948980013229	0	0	0	-9.240774144747057	0	65.7198369483322	44.6948980013229	0	0
13.13999999999976	25.63940787924832	-145.7283434525623	-220.4613668967308	0	0.9399999999999999	0	9.092069555708752	29.99676289652154	39.99866472144356	23.88140612237276	0.4168091668413365	-4.999432396014472	0	0	-29.99825966913052	29.99510964018992	39.99698359206914	119.9959661578997	2.09432469856704	-4.999432396014472	0	0	0	0	0	0	-9.245439213018416	0	65.73433327496765	44.69612849676834	0	0	0	-9.245439213018416	0	65.73433327496765	44.69612849676834	0	0
13.14999999999976	25.68846401922799	-145.25142855178	-220.8260493839004	0	0.9399999999999999	0	8.332422564587127	29.99674902998398	39.99867702790203	24.45444539154165	0.4268105888315558	-4.999435425097906	0	0	-29.9982481290209	29.99517229934016	39.99705388092224	119.995898495478	2.094323517635002	-4.999435425097906	0	0	0	0	0	0	-9.249333514105308	0	65.74641102122931	44.69714940095641	0	0	0	-9.249333514105308	0	65.74641102122931	44.69714940095641	0	0
13.15999999999976	25.78521351383945	-144.788920292034	-221.0492010752321	0	0.9399999999999999	0	7.608242081586667	29.99673938967771	39.99868894293287	24.81625531187182	0.4331253632076955	-4.999438521946348	0	0	-29.99823938946453	29.99520064927477	39.997115081189	119.9958407626489	2.094322510007046	-4.999438521946348	0	0	0	0	0	0	-9.253471516343236	0	65.75912754549603	44.69820532242998	0	0	0	-9.253471516343236	0	65.75912754549603	44.69820532242998	0	0
13.16999999999976	26.03061876132465	-144.4121882412439	-221.0726307428674	0	0.9399999999999999	0	6.705642280066139	29.99671259393172	39.99870045101505	25.12182270625597	0.4384585203264389	-4.999441012155746	0	0	-29.99823421830811	29.99524547431291	39.99716850474208	119.9957767834154	2.094321393358769	-4.999441012155746	0	0	0	0	0	0	-9.256935279967358	0	65.76966349193914	44.69906402313431	0	0	0	-9.256935279967358	0	65.76966349193914	44.69906402313431	0	0
13.17999999999976	26.38593625328033	-144.1559536910711	-220.9821403194996	0	0.9399999999999999	0	5.659776485216411	29.99666435907436	39.9987111433219	25.44083163047513	0.4440262763973085	-4.999443293621079	0	0	-29.99823149713058	29.99529497341544	39.99721397165992	119.9957103855959	2.094320234498204	-4.999443293621079	0	0	0	0	0	0	-9.26009290912639	0	65.77927767977087	44.69984942950084	0	0	0	-9.26009290912639	0	65.77927767977087	44.69984942950084	0	0
13.18999999999976	26.75969834582817	-143.9958602316748	-220.8991973408658	0	0.9399999999999999	0	4.576405676437211	29.99659770021983	39.99872062826421	25.81877601160235	0.4506226502373907	-4.999445473576872	0	0	-29.9982296010372	29.99533157556192	39.99725218190075	119.995646893468	2.094319126351523	-4.999445473576872	0	0	0	0	0	0	-9.263143718599377	0	65.78854535273729	44.70060271816052	0	0	0	-9.263143718599377	0	65.78854535273729	44.70060271816052	0	0
13.19999999999976	27.16361713061976	-143.9368232189094	-220.9005653066181	0	0.9399999999999999	0	3.447818120735604	29.99651016474305	39.99872925311879	26.26838048941694	0.4584697287069652	-4.999448308148304	0	0	-29.99822722167669	29.99536839339768	39.99729102931996	119.995581214318	2.094317980034104	-4.999448308148304	0	0	0	0	0	0	-9.267226699441979	0	65.80086621880618	44.70159097661379	0	0	0	-9.267226699441979	0	65.80086621880618	44.70159097661379	0	0
13.20999999999976	27.65133636032881	-143.9291401472775	-220.9687861184283	0	0.9399999999999999	0	2.180588055925604	29.99639702529687	39.99873682028517	26.80795655817284	0.4678871076717229	-4.999451104789063	0	0	-29.99822376437378	29.99543794434063	39.99733192155635	119.9954835157902	2.094316274873121	-4.999451104789063	0	0	0	0	0	0	-9.271090185734783	0	65.81265284240834	44.70255503093082	0	0	0	-9.271090185734783	0	65.81265284240834	44.70255503093082	0	0
13.21999999999976	28.16357611042646	-143.9762105869768	-221.1116352700192	0	0.9399999999999999	0	0.8649021308066728	29.99626734024724	39.99874355250684	27.46010828317573	0.4792693024955839	-4.999453364617677	0	0	-29.99821937167259	29.99552206471445	39.99737423421999	119.9953675189425	2.094314250346206	-4.999453364617677	0	0	0	0	0	0	-9.274160078896028	0	65.82206765551534	44.70333129034982	0	0	0	-9.274160078896028	0	65.82206765551534	44.70333129034982	0	0
13.22999999999976	28.7534139891911	-144.0846312741578	-221.3025350290356	0	0.9399999999999999	0	-0.4953924390209713	29.99612461618127	39.99875116893477	28.2677097834574	0.493364607719545	-4.999454285351075	0	0	-29.99821466538001	29.9956100295542	39.99742528359188	119.9952645182418	2.094312452644846	-4.999454285351075	0	0	0	0	0	0	-9.275261730028344	0	65.82554936701439	44.70363579158075	0	0	0	-9.275261730028344	0	65.82554936701439	44.70363579158075	0	0
13.23999999999976	29.55684384332948	-144.2666031877725	-221.5017506402268	0	0.9399999999999999	0	-1.997417476086461	29.9959537359187	39.99876083960614	29.24986983613998	0.5105065344204169	-4.9994551990036	0	0	-29.9982085780291	29.99569858675777	39.99749141330641	119.9951902046414	2.094311155627842	-4.9994551990036	0	0	0	0	0	0	-9.276350790667939	0	65.82899533132991	44.70393772065994	0	0	0	-9.276350790667939	0	65.82899533132991	44.70393772065994	0	0
13.24999999999976	30.64946465456971	-144.4680615269995	-221.6786393100025	0	0.9399999999999999	0	-3.729869175698031	29.99573482760956	39.99877254981201	30.42132176967755	0.5309522276895012	-4.99945640615659	0	0	-29.99820010476813	29.99580020677107	39.99757072264229	119.9951313465812	2.094310128360899	-4.99945640615659	0	0	0	0	0	0	-9.27778201873106	0	65.83353090879443	44.70433613252517	0	0	0	-9.27778201873106	0	65.83353090879443	44.70433613252517	0	0
